<?xml version="1.0" encoding="UTF-8" standalone="no"?>
<!DOCTYPE svg PUBLIC "-//W3C//DTD SVG 1.1//EN" "http://www.w3.org/Graphics/SVG/1.1/DTD/svg11.dtd">
<svg width="100%" height="100%" viewBox="0 0 1355 1040" version="1.1" xmlns="http://www.w3.org/2000/svg" xmlns:xlink="http://www.w3.org/1999/xlink" xml:space="preserve" xmlns:serif="http://www.serif.com/" style="fill-rule:evenodd;clip-rule:evenodd;stroke-linejoin:round;stroke-miterlimit:2;">
    <g transform="matrix(1,0,0,1,-1458.41,-694.896)">
        <g transform="matrix(1.04621,0,0,1,127.114,555.396)">
            <path d="M2567.03,845.254L2567,845.254L1273,845.254L1272.99,845.254C1272.95,845.254 1272.9,845.262 1272.86,845.275L1272.85,845.276L1272.83,845.284L1272.81,845.293L1272.8,845.295C1272.76,845.313 1272.72,845.337 1272.68,845.367L1272.68,845.371L1272.66,845.388L1272.65,845.401C1272.63,845.418 1272.61,845.436 1272.6,845.455L1272.59,845.463L1272.58,845.484L1272.57,845.504L1272.56,845.526L1272.55,845.537L1272.54,845.548L1272.54,845.559L1272.53,845.582L1272.52,845.605L1272.52,845.629L1272.51,845.639C1272.51,845.662 1272.5,845.686 1272.5,845.71L1272.5,845.728L1272.5,845.754L1272.5,845.76C1272.5,845.807 1272.51,845.853 1272.52,845.897L1272.52,845.902L1272.53,845.926L1272.54,845.948L1272.54,845.952C1272.56,845.994 1272.58,846.034 1272.61,846.071L1272.62,846.075L1551.98,1179.08L1552,1179.09L1552.01,1179.11C1552.03,1179.12 1552.04,1179.14 1552.06,1179.15L1552.07,1179.16L1552.09,1179.17L1552.11,1179.19L1552.13,1179.2L1552.14,1179.2L1552.15,1179.21L1552.17,1179.21L1552.19,1179.22L1552.21,1179.23L1552.24,1179.24L1552.25,1179.24C1552.27,1179.25 1552.29,1179.25 1552.32,1179.25L1552.34,1179.25L1552.36,1179.25L2238.47,1179.25C2238.53,1179.25 2238.59,1179.24 2238.64,1179.23L2238.64,1179.22L2238.67,1179.21L2238.68,1179.21L2238.69,1179.2C2238.74,1179.18 2238.79,1179.15 2238.83,1179.11L2567.36,846.105L2567.37,846.086L2567.39,846.067L2567.41,846.047L2567.42,846.026L2567.43,846.005L2567.44,845.983L2567.45,845.961L2567.46,845.948L2567.47,845.939L2567.47,845.926L2567.48,845.902L2567.48,845.879L2567.49,845.855L2567.49,845.83L2567.5,845.805L2567.5,845.78L2567.5,845.754C2567.5,845.696 2567.49,845.641 2567.47,845.589L2567.47,845.582L2567.46,845.559L2567.45,845.54L2567.45,845.534C2567.43,845.484 2567.39,845.438 2567.35,845.398L2567.33,845.38L2567.31,845.364L2567.29,845.349L2567.27,845.334L2567.25,845.321L2567.23,845.31L2567.21,845.299L2567.2,845.293L2567.18,845.289L2567.17,845.284L2567.15,845.276L2567.12,845.27L2567.1,845.264L2567.08,845.26L2567.05,845.256L2567.03,845.254ZM1274.07,846.254L1552.59,1178.25L2238.26,1178.25L2565.8,846.254L1274.07,846.254Z" style="fill:white;fill-rule:nonzero;"/>
            <path d="M1919.97,846.253L1920,846.254L1949,846.254C1949.2,846.254 1949.37,846.138 1949.45,845.971L1949.46,845.948L1949.47,845.926L1949.48,845.902L1949.48,845.879L1949.49,845.855L1949.49,845.83L1949.5,845.805L1949.5,845.78L1949.5,845.754L1949.5,140L1949.5,139.973C1949.49,139.82 1949.41,139.685 1949.3,139.599L1949.28,139.585L1949.26,139.572L1949.24,139.56L1949.22,139.549L1949.19,139.539L1949.17,139.53L1949.15,139.522L1949.12,139.516L1949.1,139.51L1949.08,139.506L1949.05,139.503L1949.03,139.501L1949,139.5L1920,139.5C1919.8,139.5 1919.63,139.616 1919.55,139.783L1919.54,139.805L1919.53,139.828L1919.52,139.851L1919.52,139.875L1919.51,139.899L1919.51,139.924L1919.5,139.949L1919.5,139.974L1919.5,140L1919.5,845.754L1919.5,845.78L1919.5,845.805L1919.51,845.83L1919.51,845.855L1919.52,845.879L1919.52,845.902L1919.53,845.926L1919.54,845.948L1919.55,845.971L1919.56,845.992L1919.57,846.013L1919.59,846.033L1919.6,846.053L1919.61,846.072L1919.63,846.09L1919.65,846.107L1919.66,846.124L1919.68,846.14L1919.7,846.154L1919.72,846.168L1919.74,846.181L1919.76,846.193L1919.78,846.204L1919.81,846.215L1919.83,846.223L1919.85,846.231L1919.88,846.238L1919.9,846.244L1919.92,846.248L1919.95,846.251L1919.97,846.253ZM1920.5,140.5L1920.5,845.254L1948.5,845.254L1948.5,140.5L1920.5,140.5Z" style="fill:white;fill-rule:nonzero;"/>
            <g transform="matrix(1,0,0,1,-301.25,114.5)">
                <path d="M2250.72,695.499L2250.75,695.5L2615.75,695.5L2615.77,695.5L2615.8,695.498L2615.82,695.495L2615.84,695.491L2615.87,695.486L2615.88,695.484L2615.89,695.48L2615.9,695.478L2615.91,695.472L2615.92,695.47L2615.94,695.463L2615.95,695.461L2615.97,695.451L2615.99,695.44L2616.01,695.428L2616.02,695.422C2616.08,695.381 2616.14,695.326 2616.18,695.263L2616.18,695.255L2616.19,695.238L2616.19,695.23C2616.23,695.165 2616.25,695.091 2616.25,695.013L2616.25,695L2616.25,694.979L2616.25,694.955L2616.24,694.931L2616.24,694.907L2616.24,694.883L2616.23,694.875L2616.23,694.859L2616.23,694.851L2616.22,694.835L2616.22,694.828L2616.21,694.812L2616.21,694.805L2616.2,694.783L2616.19,694.762L2616.18,694.744L2251.18,83.744L2251.17,83.732C2251.13,83.666 2251.08,83.613 2251.01,83.575L2251.01,83.57L2250.99,83.56L2250.98,83.556C2250.91,83.522 2250.84,83.502 2250.76,83.5L2250.75,83.5L2250.73,83.5L2250.7,83.502L2250.68,83.505L2250.66,83.509L2250.63,83.514L2250.62,83.516L2250.61,83.52L2250.6,83.522L2250.59,83.528L2250.58,83.53L2250.56,83.537L2250.55,83.539L2250.53,83.549L2250.51,83.56L2250.49,83.572L2250.48,83.578C2250.42,83.619 2250.36,83.674 2250.33,83.737L2250.32,83.745L2250.31,83.762L2250.31,83.77C2250.27,83.835 2250.25,83.909 2250.25,83.987L2250.25,84L2250.25,695L2250.25,695.026L2250.25,695.051C2250.25,695.051 2250.25,695.059 2250.25,695.059C2250.27,695.174 2250.32,695.276 2250.4,695.353L2250.41,695.37L2250.43,695.386L2250.45,695.401L2250.47,695.415L2250.49,695.428L2250.51,695.44L2250.53,695.451L2250.55,695.461L2250.58,695.47L2250.6,695.478L2250.62,695.484L2250.65,695.49L2250.67,695.494L2250.7,695.497L2250.72,695.499ZM2251.25,694.5L2614.87,694.5L2251.25,85.812L2251.25,694.5Z" style="fill:rgb(222,0,0);fill-rule:nonzero;"/>
            </g>
            <g transform="matrix(1,0,0,1,244.5,61.5)">
                <path d="M1675.5,748.026L1675.5,748L1675.5,137C1675.5,136.942 1675.49,136.887 1675.47,136.835L1675.47,136.828L1675.46,136.805L1675.45,136.786L1675.45,136.78C1675.42,136.731 1675.39,136.685 1675.35,136.644L1675.33,136.627L1675.31,136.61L1675.29,136.595L1675.27,136.581L1675.25,136.568L1675.23,136.556L1675.21,136.545L1675.19,136.539L1675.18,136.535L1675.17,136.53L1675.15,136.522L1675.12,136.516L1675.1,136.51L1675.08,136.506L1675.05,136.503L1675.03,136.501L1675,136.5C1674.94,136.5 1674.89,136.51 1674.84,136.528L1674.83,136.53L1674.81,136.539L1674.79,136.548L1674.78,136.551C1674.73,136.575 1674.68,136.608 1674.64,136.649L1071.64,747.649L1071.63,747.668L1071.61,747.687L1071.6,747.707L1071.58,747.728L1071.57,747.749L1071.56,747.77L1071.55,747.792L1071.54,747.805L1071.54,747.815L1071.53,747.828L1071.52,747.851L1071.52,747.875L1071.51,747.899L1071.51,747.924L1071.5,747.949L1071.5,747.974L1071.5,748C1071.5,748.058 1071.51,748.113 1071.53,748.165L1071.53,748.172L1071.54,748.195L1071.55,748.214L1071.55,748.22C1071.58,748.269 1071.61,748.315 1071.65,748.356L1071.67,748.373L1071.69,748.39L1071.71,748.405L1071.73,748.419L1071.75,748.432L1071.77,748.444L1071.79,748.455L1071.81,748.461L1071.82,748.465L1071.83,748.47L1071.85,748.478L1071.88,748.484L1071.9,748.49L1071.92,748.494L1071.95,748.497L1071.97,748.499L1072,748.5L1675,748.5C1675.19,748.5 1675.35,748.397 1675.44,748.245L1675.44,748.238L1675.45,748.217L1675.46,748.195L1675.47,748.172C1675.47,748.172 1675.47,748.165 1675.47,748.165C1675.48,748.136 1675.49,748.107 1675.49,748.076L1675.5,748.051L1675.5,748.026ZM1073.2,747.5L1674.5,747.5L1674.5,138.218L1073.2,747.5Z" style="fill:rgb(255,198,0);fill-rule:nonzero;"/>
            </g>
        </g>
    </g>
</svg>
