<?xml version="1.0" encoding="UTF-8" standalone="no"?>
<!DOCTYPE svg PUBLIC "-//W3C//DTD SVG 1.1//EN" "http://www.w3.org/Graphics/SVG/1.1/DTD/svg11.dtd">
<svg width="100%" height="100%" viewBox="0 0 2342 315" preserveAspectRatio="none" version="1.1" xmlns="http://www.w3.org/2000/svg" xmlns:xlink="http://www.w3.org/1999/xlink" xmlns:serif="http://www.serif.com/" style="fill-rule:evenodd;clip-rule:evenodd;stroke-linejoin:round;stroke-miterlimit:2;">
    <g transform="matrix(1,0,0,1,-107.434,-1845.39)">
        <g transform="matrix(0.637914,0,0,0.619786,79.8192,1741.73)">
            <path d="M50.877,674.86L51.289,674.87L3705.69,674.87L3706.1,674.86L3706.51,674.83L3706.91,674.78L3707.3,674.71L3707.69,674.622L3708.07,674.516L3708.44,674.392L3708.8,674.251L3709.16,674.094L3709.5,673.92L3709.84,673.73L3710.16,673.525L3710.48,673.306L3710.78,673.072L3711.07,672.825L3711.35,672.564L3711.61,672.291L3711.86,672.005L3712.1,671.708L3712.32,671.399L3712.53,671.08L3712.72,670.75L3712.9,670.411L3713.06,670.062L3713.21,669.705L3713.33,669.339L3713.44,668.966L3713.53,668.585L3713.6,668.198L3713.65,667.804L3713.68,667.405L3713.69,667L3713.69,351.268L3713.69,351.152L3713.69,351.113L3713.69,351.054L3713.68,350.863L3713.67,350.75L3713.67,350.735L3713.67,350.706C3713.61,349.812 3713.39,348.959 3713.05,348.172L3713.05,348.17L3713.03,348.146L3712.9,347.857L3712.89,347.84L3712.89,347.823L3712.74,347.541L3712.72,347.517L3712.72,347.516C3712.31,346.763 3711.76,346.067 3711.09,345.463L3711.07,345.443L3711.06,345.433L3710.97,345.356L3710.82,345.234L3710.78,345.195L3710.75,345.171L3710.66,345.097C3700.97,337.555 3689.11,337.102 3676.37,341.485C3660.77,346.851 3643.59,359.878 3628.95,371.457C3621.44,377.396 3614.64,382.895 3609.15,386.434C3607.73,387.354 3605.87,388.268 3604.68,388.82C3591.53,376.51 3573.46,345.436 3553.8,326.219C3536.95,309.756 3518.71,302.004 3501.5,312.347C3482.68,323.648 3463.19,337.589 3442.62,348.537C3423.17,358.884 3402.75,366.582 3380.91,365.994C3375.5,365.848 3369.69,362.287 3363.09,357.147C3350.95,347.705 3337.22,332.712 3321.93,316.331C3297.99,290.682 3270.38,261.777 3239.62,243.866C3218.04,231.308 3194.91,224.088 3170.42,226.38C3120.44,231.056 3077.03,259.222 3033.24,286.399C2991.85,312.091 2950.11,336.922 2900.94,336.445C2888.87,336.328 2877.66,330.728 2866.7,322.262C2848.36,308.113 2830.95,286.09 2812.76,264.276C2796.89,245.261 2780.47,226.391 2762.61,212.408C2743.61,197.528 2722.95,188.13 2699.81,188.856C2692.39,189.089 2683.12,192.344 2672.65,198.162C2658.72,205.909 2642.2,218.239 2624.61,232.32C2582.41,266.101 2533.86,310.487 2500.47,321.547C2490.69,324.785 2481.11,322.744 2471.31,317.862C2459.98,312.224 2448.49,302.918 2436.33,292.245C2416.99,275.271 2396.17,254.911 2372.49,238.877C2347.74,222.126 2319.94,210.084 2287.69,210.55C2232.24,211.352 2186.86,245.077 2141.38,278.058C2098.84,308.911 2056.22,339.164 2003.06,335.223C2001.55,335.112 1999.98,334.204 1998.18,333.011C1995.37,331.154 1992.36,328.51 1989.09,325.278C1978.14,314.444 1964.88,297.454 1949.24,278.98C1929.05,255.128 1904.99,228.9 1877.08,209.57C1848.16,189.543 1815.13,176.903 1778.04,180.963C1726.84,186.567 1686.73,229.805 1647.25,273.865C1628.49,294.806 1609.78,315.802 1589.72,332.267C1571.93,346.866 1553.11,357.896 1532.08,361.591L1524.13,346.361C1506.88,313.49 1488.41,275.252 1464.44,242.608C1439.61,208.793 1408.88,181.005 1368.06,170.218C1341.54,163.207 1311.87,169.041 1280.79,183.35C1236.48,203.75 1188.99,241.411 1143.62,280.146C1099.1,318.161 1056.64,357.174 1021.3,381.085C1001.15,394.714 983.813,403.656 969.906,403.128C969.442,401.213 968.677,398.293 968.006,396.836C936.522,328.41 901.952,251.237 838.209,206.689C795.963,177.164 759.247,183.262 725.398,203.572C693.803,222.529 664.813,254.608 636.093,279.868C589.173,321.137 540.139,363.265 479.954,383.539C412.062,406.409 389.89,375.399 341.817,335.56C308.459,307.916 270.723,284.12 230.669,267.408C182.293,247.223 146.114,261.884 116.286,290.893C88.315,318.095 66.162,358.536 44.493,392.852L44.47,392.891L44.448,392.925L44.352,393.089L44.285,393.201L44.273,393.224L44.255,393.254L44.146,393.463L44.097,393.556L44.09,393.57L44.078,393.594L43.967,393.836L43.929,393.917L43.926,393.925L43.918,393.942L43.814,394.201L43.781,394.283L43.779,394.288L43.774,394.3L43.691,394.541L43.653,394.652L43.651,394.658L43.649,394.665L43.596,394.845L43.544,395.026L43.542,395.033L43.541,395.039L43.514,395.154L43.455,395.401L43.453,395.414L43.451,395.419L43.436,395.506L43.385,395.779L43.382,395.798L43.381,395.807L43.369,395.896L43.334,396.159L43.332,396.185L43.33,396.2L43.322,396.306L43.302,396.539L43.301,396.574L43.299,396.6L43.296,396.73L43.289,396.919L43.29,396.959L43.289,397.005L43.289,667L43.292,667.126C43.33,669.653 44.584,671.893 46.503,673.306L46.817,673.525L47.142,673.73L47.477,673.92L47.822,674.094L48.176,674.251L48.539,674.392L48.911,674.516L49.29,674.622L49.677,674.71L50.071,674.78L50.471,674.83L50.877,674.86ZM3697.69,355.616C3691.75,352.978 3684.68,354.809 3677.28,358.065C3660.19,365.584 3641.86,381.71 3627.89,392.435C3619.53,398.857 3612.32,403.404 3607.49,404.595C3602.68,405.781 3598.92,404.73 3596.14,402.424C3582.66,391.245 3563.4,357.792 3542.52,337.386C3537.63,332.605 3532.67,328.592 3527.63,326.04C3521.71,323.036 3515.72,322.247 3509.84,325.781C3490.8,337.219 3471.05,351.303 3450.23,362.382C3428.27,374.062 3405.13,382.392 3380.47,381.728C3372.34,381.51 3363.1,377.221 3353.16,369.495C3340.49,359.643 3326.1,344.07 3310.14,326.977C3290.96,306.424 3269.41,283.603 3245.63,266.612C3223.06,250.487 3198.5,239.564 3171.93,242.05C3124.41,246.496 3083.41,273.872 3041.78,299.712C2997.76,327.035 2953.08,352.693 2900.78,352.185C2885.37,352.036 2870.83,345.456 2856.82,334.646C2837.69,319.881 2819.38,297.026 2800.39,274.262C2785.26,256.128 2769.68,238.058 2752.65,224.723C2736.76,212.283 2719.67,203.982 2700.32,204.589C2694.87,204.76 2688.22,207.59 2680.52,211.866C2667.22,219.26 2651.5,231.088 2634.71,244.529C2590.96,279.553 2540.19,324.997 2505.57,336.465C2491.7,341.062 2478.01,338.839 2464.08,331.907C2451.68,325.733 2438.99,315.677 2425.68,303.99C2406.8,287.423 2386.53,267.493 2363.41,251.844C2341.36,236.91 2316.67,225.874 2287.92,226.289C2235.8,227.043 2193.62,259.728 2150.88,290.728C2105.2,323.855 2058.93,355.15 2001.85,350.92C1996.6,350.53 1990.33,347.504 1983.53,341.722C1971.29,331.314 1955.75,311.261 1936.95,289.054C1917.59,266.193 1894.62,240.968 1867.87,222.442C1842.12,204.612 1812.83,192.993 1779.81,196.607C1756.63,199.144 1736.16,210.528 1716.93,226.093C1696.76,242.424 1678,263.346 1659.25,284.273C1619.8,328.311 1579.96,371.797 1529.29,377.918C1527.65,378.117 1524.48,378 1521.61,374.863C1518.52,371.483 1510.04,353.813 1509.91,353.581C1493.01,321.356 1474.97,283.829 1451.47,251.826C1428.83,220.995 1401.13,195.255 1363.91,185.42C1340.68,179.278 1314.8,185.072 1287.57,197.607C1244.42,217.473 1198.29,254.312 1154.11,292.034C1109.09,330.476 1066.1,369.875 1030.36,394.055C1004.55,411.52 981.916,420.882 964.72,418.454C960.931,417.919 958.213,415.892 956.37,412.664C955.509,411.157 954.864,409.262 954.386,407.234C954.068,405.885 953.927,404.408 953.43,403.327C923.069,337.343 890.411,262.479 828.943,219.521C793.288,194.603 762.297,199.87 733.729,217.01C702.908,235.504 674.773,266.961 646.757,291.603C598.259,334.26 547.347,377.475 485.137,398.431C410.02,423.735 384.698,391.678 331.509,347.599C299.365,320.96 263.019,298.003 224.422,281.899C183.419,264.791 152.816,277.5 127.534,302.087C100.913,327.977 79.924,366.362 59.289,399.241L59.289,659.13L3697.69,659.13L3697.69,355.616Z" style="fill:rgb(0,156,255);fill-rule:nonzero;"/>
        </g>
    </g>
</svg>
