<?xml version="1.0" encoding="UTF-8" standalone="no"?>
<!DOCTYPE svg PUBLIC "-//W3C//DTD SVG 1.1//EN" "http://www.w3.org/Graphics/SVG/1.1/DTD/svg11.dtd">
<svg width="100%" height="100%" viewBox="0 0 3840 500" version="1.1" xmlns="http://www.w3.org/2000/svg" xmlns:xlink="http://www.w3.org/1999/xlink" xml:space="preserve" xmlns:serif="http://www.serif.com/" style="fill-rule:evenodd;clip-rule:evenodd;stroke-linejoin:round;stroke-miterlimit:2;">
    <g transform="matrix(1,0,0,1,0,-1234.65)">
        <g transform="matrix(1.04167,0,0,0.850748,-79.9985,725.022)">
            <path d="M84.387,1186.74L84.799,1186.75L3755.2,1186.75L3755.61,1186.74C3758.47,1186.6 3760.93,1184.95 3762.23,1182.57L3762.24,1182.57L3762.41,1182.22L3762.57,1181.87L3762.72,1181.5L3762.84,1181.13L3762.95,1180.75L3763.04,1180.37L3763.11,1179.97L3763.16,1179.57L3763.19,1179.16L3763.2,1178.75L3763.2,969.001L3763.2,968.926C3763.2,968.794 3763.19,968.662 3763.19,968.53L3763.16,968.199L3763.16,968.16L3763.16,968.154L3763.16,968.131L3763.13,967.945L3763.11,967.759L3763.11,967.736L3763.1,967.731L3763.1,967.692L3763.04,967.366C3763.01,967.237 3762.98,967.108 3762.95,966.979L3762.93,966.905C3752.82,928.695 3740.28,890.852 3726.15,853.971C3703.94,796.033 3671.86,732.146 3613.28,704.95C3586.28,692.414 3563.92,690.893 3544.6,696.092C3516.36,703.694 3494.43,726.219 3473.89,751.911C3457.93,771.871 3442.73,793.676 3425.24,810.53C3409.99,825.22 3393.01,836.108 3371.81,837.581L3365.52,825.494C3324.19,750.649 3259.52,671.881 3168.07,669.125C3137.81,668.213 3110.41,679.137 3084.14,695.873C3059,711.887 3034.86,733.253 3010.01,753.902C2962.76,793.159 2912.97,830.324 2846.72,817.507C2846.23,817.11 2842.46,813.996 2839.54,810.684C2832.41,802.598 2822.99,789.744 2811.48,774.32C2783.91,737.361 2744.71,686.026 2697.07,648.629C2664.5,623.058 2627.98,604.018 2588.6,599.835C2521.46,592.706 2455.3,634.291 2389.28,682.295C2325.9,728.376 2262.54,780.218 2197.52,795.293C2119.43,813.395 2084.93,773.098 2049.96,730.773C2011.62,684.376 1972.72,635.718 1886.28,643.903C1792.98,652.737 1715,711.181 1635.61,769.929C1558.62,826.901 1480.25,884.144 1383.55,892.386C1351.45,895.122 1333.15,878.156 1318.99,855.351C1303.2,829.916 1292.22,797.573 1275.79,772.952C1242.05,722.418 1193.69,679.268 1137.63,656.4C1075.85,631.204 1014.01,646.39 954.401,678.515C868.257,724.939 786.812,807.057 717.155,845.614C568.822,927.722 468.094,860.512 377.018,808.28C319.184,775.112 264.866,748.083 205.813,762.942C166.501,772.833 124.755,801.314 78.513,860.039L78.429,860.152L78.389,860.203L78.35,860.258L78.267,860.368L78.201,860.467L78.166,860.516L78.123,860.584L78.04,860.706L77.987,860.795L77.958,860.841L77.914,860.917L77.833,861.052L77.79,861.133L77.765,861.176L77.721,861.262L77.644,861.405L77.61,861.478L77.588,861.521L77.544,861.618L77.475,861.765L77.448,861.83L77.428,861.875L77.383,861.988L77.325,862.129L77.304,862.188L77.284,862.238L77.24,862.369L77.194,862.499L77.178,862.552L77.159,862.61L77.117,862.757L77.082,862.873L77.07,862.922L77.051,862.989L77.014,863.147L76.989,863.251L76.979,863.298L76.961,863.376L76.933,863.537L76.914,863.631L76.907,863.681L76.891,863.77L76.871,863.926L76.858,864.014L76.853,864.068L76.84,864.17L76.829,864.318L76.821,864.397L76.818,864.458L76.809,864.576L76.806,864.714L76.802,864.782L76.802,864.847L76.799,864.988L76.799,1178.75L76.809,1179.16L76.84,1179.57C77.058,1181.71 78.123,1183.61 79.695,1184.91L79.711,1184.93L80.013,1185.16L80.327,1185.39L80.652,1185.6L80.987,1185.79L81.332,1185.96L81.686,1186.12L82.049,1186.27L82.421,1186.39L82.8,1186.5L83.187,1186.59L83.581,1186.66L83.981,1186.71L84.387,1186.74ZM3747.2,970.025C3737.28,932.7 3725.02,895.733 3711.21,859.697C3690.42,805.463 3661.37,744.92 3606.54,719.462C3583.8,708.904 3565.03,707.163 3548.76,711.542C3523.63,718.307 3504.66,739.039 3486.39,761.902C3470,782.404 3454.3,804.74 3436.34,822.051C3417.11,840.582 3395.28,853.443 3367.85,853.747C3366.36,853.764 3363.68,853.396 3361.21,850.693C3358.58,847.811 3351.63,833.431 3351.51,833.228C3312.76,763.055 3253.33,687.701 3167.59,685.118C3140.56,684.303 3116.2,694.419 3092.73,709.367C3068.13,725.038 3044.56,746.002 3020.24,766.208C2969.22,808.591 2914.88,847.171 2843.27,833.139C2840.3,832.556 2836.05,830.133 2831.26,825.282C2823.58,817.5 2812.56,802.527 2798.66,783.887C2771.77,747.844 2733.65,697.684 2687.19,661.215C2657.04,637.542 2623.37,619.618 2586.91,615.746C2523.32,608.993 2461.22,649.766 2398.69,695.236C2333.51,742.629 2268.01,795.375 2201.13,810.879C2114.91,830.868 2076.24,787.7 2037.62,740.964C2002.37,698.301 1967.28,652.305 1887.79,659.831C1797.32,668.397 1722.1,725.829 1645.13,782.79C1565.75,841.528 1484.6,899.831 1384.9,908.328C1345.6,911.678 1322.74,891.715 1305.4,863.792C1289.69,838.5 1278.82,806.318 1262.48,781.836C1230.49,733.924 1184.74,692.897 1131.59,671.215C1059.68,641.889 987.954,672.828 919.993,718.031C849.509,764.912 783.09,827.405 724.904,859.613C569.795,945.471 464.295,876.777 369.059,822.159C315.104,791.217 264.808,764.596 209.717,778.458C173.419,787.591 135.37,814.272 92.799,867.773L92.799,1170.75L3747.2,1170.75L3747.2,970.025Z" style="fill:rgb(0,65,106);fill-rule:nonzero;"/>
        </g>
    </g>
</svg>
