<?xml version="1.0" encoding="UTF-8" standalone="no"?>
<!DOCTYPE svg PUBLIC "-//W3C//DTD SVG 1.1//EN" "http://www.w3.org/Graphics/SVG/1.1/DTD/svg11.dtd">
<svg width="100%" height="100%" viewBox="0 0 3840 455" version="1.1" xmlns="http://www.w3.org/2000/svg" xmlns:xlink="http://www.w3.org/1999/xlink" xml:space="preserve" xmlns:serif="http://www.serif.com/" style="fill-rule:evenodd;clip-rule:evenodd;stroke-linejoin:round;stroke-miterlimit:2;">
    <g transform="matrix(1,0,0,1,0,-1447.72)">
        <g transform="matrix(1.04167,0,0,0.834822,-36.76,825.924)">
            <path d="M36.614,918.992L36.557,919.075L36.527,919.125L36.477,919.202L36.409,919.319L36.356,919.404L36.321,919.469L36.272,919.554L36.217,919.66L36.171,919.744L36.135,919.819L36.087,919.912L36.041,920.012L36.002,920.092L35.966,920.177L35.921,920.276L35.884,920.37L35.85,920.45L35.816,920.543L35.775,920.645L35.745,920.735L35.715,920.817L35.684,920.916L35.649,921.019L35.624,921.105L35.597,921.191L35.57,921.296L35.541,921.397L35.522,921.481L35.498,921.573L35.475,921.681L35.453,921.777L35.438,921.862L35.417,921.962L35.4,922.07L35.384,922.16L35.372,922.249L35.356,922.357L35.345,922.461L35.334,922.544L35.326,922.639L35.314,922.758L35.308,922.856L35.302,922.929L35.299,923.029L35.292,923.165L35.292,923.256L35.29,923.315L35.291,923.415L35.291,923.576L43.291,1281.18L43.296,1281.29L43.299,1281.41L43.306,1281.51L43.31,1281.59L43.321,1281.7L43.33,1281.82L43.342,1281.91L43.35,1282L43.366,1282.1L43.381,1282.22L43.398,1282.31L43.41,1282.39L43.431,1282.5L43.451,1282.61L43.473,1282.7L43.489,1282.79L43.515,1282.89L43.541,1283L43.566,1283.09L43.587,1283.17L43.619,1283.27L43.649,1283.38L43.677,1283.46L43.704,1283.55L43.741,1283.65L43.774,1283.75L43.806,1283.83L43.838,1283.92L43.881,1284.02L43.918,1284.11L43.953,1284.19L43.989,1284.28L44.038,1284.38L44.078,1284.47L44.116,1284.54L44.157,1284.63L44.211,1284.73L44.255,1284.81L44.295,1284.88L44.342,1284.97L44.401,1285.07L44.448,1285.15L44.491,1285.21L44.542,1285.3L44.605,1285.39L44.656,1285.47L44.703,1285.54L44.757,1285.62L44.824,1285.71L44.879,1285.79L44.93,1285.85L44.987,1285.93L45.057,1286.01L45.116,1286.09L45.172,1286.15L45.232,1286.22L45.303,1286.3L45.368,1286.38L45.428,1286.44L45.49,1286.51L45.563,1286.58L45.633,1286.66L45.698,1286.72L45.761,1286.78L45.836,1286.85L45.911,1286.92L45.98,1286.98L46.045,1287.04L46.12,1287.1L46.201,1287.17L46.275,1287.23L46.34,1287.28L46.417,1287.34L46.503,1287.41L46.582,1287.46L46.648,1287.52L46.726,1287.57L46.817,1287.63L46.899,1287.68L46.967,1287.73L47.047,1287.78L47.142,1287.84L47.226,1287.89L47.296,1287.93L47.378,1287.98L47.477,1288.03L47.563,1288.08L47.635,1288.12L47.721,1288.16L47.822,1288.21L47.909,1288.25L47.984,1288.29L48.073,1288.32L48.176,1288.37L48.264,1288.41L48.342,1288.44L48.436,1288.47L48.539,1288.51L48.626,1288.54L48.708,1288.57L48.808,1288.61L48.911,1288.64L48.997,1288.66L49.082,1288.69L49.188,1288.72L49.29,1288.75L49.375,1288.77L35.29,1289L49.575,1288.81L49.677,1288.84L49.76,1288.85L49.853,1288.87L49.969,1288.89L50.071,1288.91L50.153,1288.92L50.248,1288.93L50.368,1288.95L50.471,1288.96L50.554,1288.96L50.649,1288.98L50.771,1288.98L50.877,1288.99L50.962,1288.99L51.056,1289L51.176,1289L35.29,1289L3713.69,1289C3713.69,1289 3713.74,1289 3713.74,1289C3716.76,1288.98 3719.38,1287.29 3720.72,1284.81L3720.9,1284.47L3721.06,1284.11L3721.21,1283.75L3721.33,1283.38L3721.44,1283L3721.53,1282.61L3721.6,1282.22L3721.65,1281.82L3721.68,1281.41L3721.69,1281L3721.69,926.489L3721.69,926.459L3721.69,926.421L3721.69,923.397C3721.69,920.454 3720.1,917.879 3717.73,916.492C3696.66,874.511 3677.19,856.451 3656.77,850.69C3642.1,846.548 3626.57,848.615 3608.87,853.787C3583.29,861.267 3552.62,875.353 3511.75,882.154L3510.49,880.423C3489.86,854.481 3462.75,824.007 3428.13,817.645C3393.32,811.249 3358.89,823.34 3324.53,837.373C3292.62,850.404 3260.8,865.134 3228.5,864.954C3211.8,864.862 3200.43,852.591 3188.17,841.452C3172.79,827.483 3156.49,814.7 3133.04,816.804C3102.49,819.546 3065.55,841.037 3029.11,858.78C3011.93,867.144 2994.86,874.601 2978.64,878.328C2963.72,881.755 2949.59,882.043 2936.99,876.2C2925.17,870.717 2915.12,861.752 2904.99,852.728C2893.75,842.72 2882.43,832.621 2869.26,825.874C2861.03,821.664 2851.05,820.753 2839.72,822.704C2824.95,825.251 2807.55,832.766 2789.04,842.607C2745.59,865.699 2695.41,902.065 2658.73,909.202C2630.64,914.664 2608.47,901.316 2586.66,887.767C2561.68,872.235 2537.1,856.417 2507.39,859.202C2465.73,863.107 2425.32,887.915 2382.79,912.443C2342.46,935.705 2300.1,958.67 2252.09,960.146C2221.69,961.081 2199.45,939.61 2177.54,916.346C2153.05,890.344 2129.12,861.887 2098.54,851.646C2060.71,838.974 2023.23,854.588 1985.57,871.384C1951.54,886.562 1917.37,902.797 1882.08,892.907C1868.6,889.132 1856.53,879.485 1844.38,867.238C1831.24,853.999 1818.16,837.717 1803.84,821.502C1773.78,787.485 1738.26,754.063 1686.78,746.469C1624.86,737.334 1558.19,767.516 1492.1,803.958C1428.35,839.107 1365.09,879.94 1306.97,893.185C1254.32,905.181 1221.65,872.577 1188.57,837.783C1152.05,799.367 1115.11,758.211 1057.2,757.483C1022.8,757.051 990.465,779.45 957.703,808.638C912.094,849.272 865.255,903.253 806.64,915.38C799.593,916.838 792.238,914.605 784.384,910.643C775.113,905.966 765.358,898.823 755.002,890.832C721.239,864.779 681.492,830.783 634.499,832.653C581.883,834.747 538.241,863.282 493.848,890.177C452.094,915.474 409.622,939.298 356.744,933.73C297.225,927.462 255.563,895.689 219.295,871.097C189.598,850.96 163.035,835.73 134.483,838.897C106.188,842.036 75.019,863.27 36.702,918.857L36.614,918.992ZM35.649,921.019L35.29,1289L3705.69,1273L3705.69,928.276C3686.74,889.054 3670.73,871.252 3652.43,866.088C3640.45,862.707 3627.81,864.922 3613.36,869.145C3586.31,877.053 3553.65,892.073 3509.63,898.689C3508.26,898.895 3505.79,898.974 3503.2,896.906C3502.11,896.03 3498.36,890.931 3497.88,890.27C3479.48,867.145 3456.08,839.05 3425.24,833.382C3393.39,827.529 3362.02,839.343 3330.58,852.185C3296.69,866.029 3262.72,881.145 3228.41,880.954C3207.66,880.839 3192.65,867.14 3177.41,853.296C3165.28,842.284 3152.96,831.081 3134.47,832.74C3099.41,835.887 3055.86,865.622 3014.51,883.062C2984.11,895.882 2954.79,902.091 2930.26,890.715C2917.05,884.587 2905.67,874.763 2894.35,864.678C2884.13,855.577 2873.95,846.251 2861.97,840.117C2856.54,837.34 2849.91,837.185 2842.44,838.472C2829.03,840.782 2813.34,847.809 2796.55,856.736C2751.71,880.567 2699.64,917.543 2661.78,924.907C2629.35,931.215 2603.39,917.003 2578.22,901.356C2556.24,887.692 2535.01,872.682 2508.89,875.132C2469.32,878.842 2431.18,903.004 2390.78,926.302C2348.2,950.866 2303.27,974.58 2252.59,976.139C2217.6,977.214 2191.1,954.084 2165.89,927.315C2143.26,903.284 2121.72,876.282 2093.46,866.818C2059.43,855.418 2025.97,870.887 1992.09,885.996C1954.59,902.722 1916.65,919.212 1877.76,908.313C1853,901.377 1831.59,878.241 1808.58,851.446C1776.98,814.656 1741.71,770.744 1684.45,762.298C1625.62,753.62 1562.61,783.351 1499.83,817.969C1434.7,853.879 1369.91,895.254 1310.53,908.785C1251.56,922.221 1214.02,887.774 1176.97,848.807C1143.37,813.462 1110.28,774.152 1057,773.482C1038.15,773.245 1020.22,781.284 1002.34,793.411C983.299,806.323 964.442,823.871 944.999,842.059C904.388,880.048 861.175,920.436 809.882,931.048C801.479,932.786 792.696,931.5 783.536,927.819C771.61,923.027 758.845,914.007 745.228,903.499C729.279,891.193 712.019,876.813 693.178,865.758C675.364,855.306 656.122,847.805 635.135,848.64C585.274,850.624 544.208,878.374 502.139,903.862C457.431,930.948 411.687,955.604 355.069,949.642C292.494,943.053 248.445,910.194 210.316,884.34C184.212,866.64 161.344,852.016 136.247,854.799C111.256,857.572 69.275,872.748 35.649,921.019Z" style="fill:rgb(0,92,151);fill-rule:nonzero;"/>
        </g>
    </g>
</svg>
