<?xml version="1.0" encoding="UTF-8" standalone="no"?>
<!DOCTYPE svg PUBLIC "-//W3C//DTD SVG 1.1//EN" "http://www.w3.org/Graphics/SVG/1.1/DTD/svg11.dtd">
<svg width="100%" height="100%" viewBox="0 0 3840 464" preserveAspectRatio="none" version="1.1" xmlns="http://www.w3.org/2000/svg" xmlns:xlink="http://www.w3.org/1999/xlink" xml:space="preserve" xmlns:serif="http://www.serif.com/" style="fill-rule:evenodd;clip-rule:evenodd;stroke-linejoin:round;stroke-miterlimit:2;">
    <g transform="matrix(1,0,0,1,-1.16529e-12,-1095)">
        <g transform="matrix(1.03941,0,0,1,-36.679,-183.933)">
            <path d="M3729.68,1734.41L3729.69,1431.07L3729.69,1430.84L3729.69,1430.78L3729.68,1430.76L3729.68,1430.66L3729.66,1430.42L3729.66,1430.39L3729.66,1430.38L3729.65,1430.25L3729.62,1430.01C3729.55,1429.5 3729.44,1429 3729.28,1428.53L3729.27,1428.52L3729.27,1428.5L3729.21,1428.32L3729.15,1428.19L3729.14,1428.15L3729.12,1428.11L3729.06,1427.96L3729.01,1427.85L3728.99,1427.8L3728.96,1427.72L3728.9,1427.6L3728.86,1427.53L3728.83,1427.45L3728.76,1427.34L3728.73,1427.26L3728.7,1427.21L3728.64,1427.11L3728.56,1426.96L3728.53,1426.92L3728.51,1426.9L3728.44,1426.77L3728.33,1426.61L3728.33,1426.6L3728.32,1426.59C3728.04,1426.17 3727.71,1425.78 3727.35,1425.42L3727.18,1425.25L3727.08,1425.16L3727.07,1425.15L3727.05,1425.13L3726.87,1424.97L3726.8,1424.91L3726.78,1424.9L3726.73,1424.86L3726.55,1424.71C3683.79,1392.02 3653.81,1380.99 3629.47,1382.6C3604.64,1384.25 3585,1398.94 3563.28,1419.74C3536.83,1445.06 3506.62,1479.59 3455.49,1505.98C3430.98,1518.63 3402.91,1529.4 3375.03,1523.99C3366.65,1522.37 3358.9,1516.97 3351.18,1509.27C3338.02,1496.16 3325.32,1476.55 3311.59,1454.41C3275.53,1396.23 3232.74,1321.59 3162.1,1293.43C3133.84,1282.17 3098.96,1273.35 3068.87,1283.19C3017.75,1299.91 2985.84,1348.08 2952.84,1387.23C2910.35,1437.65 2853.82,1498.75 2789.95,1539.6C2748.24,1566.28 2703.41,1584.33 2657.32,1584.48C2628.07,1584.58 2612.73,1563.9 2601.2,1538.52C2588.23,1509.93 2580.15,1475.28 2566.99,1451.03C2519.44,1363.45 2437.32,1302.03 2336.76,1296.01C2231,1289.67 2168.88,1350.03 2110.73,1414.5C2055.53,1475.7 2004.26,1540.93 1917.74,1548.25C1882.16,1551.26 1858.1,1526.37 1837.88,1496.25C1815.76,1463.32 1798.33,1423.82 1778.46,1400.7C1703.14,1313.07 1567.69,1289.31 1461.3,1325.56C1372.54,1355.8 1304.67,1379.59 1244.63,1457.96C1187.3,1532.81 1166.17,1551.99 1059.49,1539.22C1012.63,1533.61 1003.49,1501.36 978.653,1457.9C931.887,1376.05 919.764,1373.59 809.486,1331.31C763.833,1313.81 726.905,1312.44 695.692,1321.45C649.301,1334.84 615.32,1371.53 584.127,1414.5C559.169,1448.88 535.897,1487.23 508.608,1519.67C482.28,1550.98 452.224,1576.79 412.714,1587.24C329.062,1609.37 298.91,1541.15 272.015,1475.33C257.475,1439.74 244.011,1404.44 225.484,1381.36C215.343,1368.72 203.669,1359.6 189.791,1355.35C175.934,1351.1 159.753,1351.64 140.405,1359.07C94.631,1376.66 69.104,1430.91 54.978,1474.26C44.367,1506.83 39.091,1540.25 35.337,1574.23L35.336,1574.25L35.33,1574.29L35.314,1574.5L35.302,1574.64L35.301,1574.67L35.299,1574.7L35.296,1574.83L35.288,1575.05L35.289,1575.09L35.289,1575.11L35.289,1734L35.29,1734.04C35.304,1737.06 36.994,1739.68 39.477,1741.03L39.822,1741.21L40.176,1741.37L40.539,1741.51L40.911,1741.64L41.29,1741.75L41.677,1741.84L42.071,1741.91L42.471,1741.96L42.877,1741.99L43.289,1742L3721.69,1742L3722.1,1741.99L3722.51,1741.96L3722.91,1741.91L3723.3,1741.84L3723.69,1741.75L3724.07,1741.64L3724.44,1741.51L3724.81,1741.37L3725.16,1741.21L3725.5,1741.03L3725.84,1740.84L3726.16,1740.63L3726.48,1740.41L3726.78,1740.17L3727.07,1739.92L3727.35,1739.66L3727.61,1739.38L3727.86,1739.09L3728.1,1738.79L3728.33,1738.47L3728.53,1738.15L3728.73,1737.81L3728.9,1737.47L3729.06,1737.11L3729.21,1736.75L3729.33,1736.38L3729.44,1736L3729.53,1735.61L3729.6,1735.22L3729.65,1734.82L3729.68,1734.41ZM3713.69,1435.05C3677.14,1407.58 3651.69,1397.17 3630.53,1398.57C3609.25,1399.98 3592.96,1413.48 3574.35,1431.3C3547.02,1457.46 3515.65,1492.94 3462.83,1520.2C3435.21,1534.46 3403.4,1545.8 3371.99,1539.7C3360.81,1537.53 3350.18,1530.87 3339.88,1520.61C3326,1506.78 3312.47,1486.19 3297.99,1462.84C3263.57,1407.29 3223.63,1335.18 3156.18,1308.3C3131.19,1298.34 3100.45,1289.69 3073.85,1298.4C3025.57,1314.19 2996.24,1360.57 2965.07,1397.54C2921.67,1449.05 2863.82,1511.35 2798.57,1553.08C2754.2,1581.46 2706.4,1600.32 2657.37,1600.48C2628.01,1600.58 2609.16,1584.87 2595.47,1562.14C2577.1,1531.64 2568.67,1487.68 2552.92,1458.66C2508.04,1375.99 2430.74,1317.67 2335.8,1311.98C2235.76,1305.99 2177.62,1364.24 2122.61,1425.22C2064.67,1489.45 2009.9,1556.51 1919.09,1564.19C1885.44,1567.04 1859.88,1549.84 1838.86,1524.44C1809.96,1489.53 1789.94,1438.61 1766.32,1411.13C1695.14,1328.31 1567.01,1306.45 1466.46,1340.7C1424.1,1355.14 1390.05,1383.79 1359.33,1418.06C1327.81,1453.23 1299.82,1494.3 1270.41,1532.69C1209.61,1612.08 1142.56,1679.65 1029.41,1666.11C975.63,1659.67 956.048,1616.46 941.065,1561.08C932.716,1530.22 925.543,1495.61 913.091,1462.57C895.014,1414.62 865.626,1369.97 803.758,1346.25C762.167,1330.31 728.564,1328.62 700.128,1336.82C657.046,1349.26 626.044,1383.99 597.075,1423.9C571.897,1458.58 548.383,1497.24 520.853,1529.97C492.361,1563.85 459.564,1591.4 416.806,1602.71C323.521,1627.39 287.196,1554.79 257.203,1481.38C243.3,1447.35 230.723,1413.44 213.006,1391.37C205.026,1381.43 196.028,1373.99 185.107,1370.65C174.165,1367.3 161.422,1368.14 146.144,1374.01C104.726,1389.92 82.973,1439.99 70.191,1479.22C59.965,1510.6 54.917,1542.82 51.289,1575.56L51.289,1726L3713.69,1726L3713.69,1435.05Z" style="fill:rgb(0,36,60);fill-rule:nonzero;"/>
        </g>
    </g>
</svg>
