<?xml version="1.0" encoding="UTF-8" standalone="no"?>
<!DOCTYPE svg PUBLIC "-//W3C//DTD SVG 1.1//EN" "http://www.w3.org/Graphics/SVG/1.1/DTD/svg11.dtd">
<svg width="100%" height="100%" viewBox="0 0 670 299" version="1.1" xmlns="http://www.w3.org/2000/svg" xmlns:xlink="http://www.w3.org/1999/xlink" xml:space="preserve" xmlns:serif="http://www.serif.com/" style="fill-rule:evenodd;clip-rule:evenodd;stroke-linejoin:round;stroke-miterlimit:2;">
    <g transform="matrix(1,0,0,1,-1250.04,-228.796)">
        <g transform="matrix(1,0,0,1,-477.329,-26)">
            <path d="M2081.04,264.163C2006.37,284.492 1975.35,303.889 1899,365.092C1844.64,408.673 1778.42,382.734 1756.78,405.062C1741.97,420.333 1708.8,473.519 1740.91,517.649C1768.41,555.434 1829.05,559.382 1868,545.643C1990.94,502.277 2050.91,523.751 2167.23,517.649C2249.91,513.311 2388.18,524.107 2394.7,505.778C2419.23,436.768 2265.13,359.566 2222.5,324.065C2194.54,300.773 2180.79,254.648 2138.17,255.777C2079.06,257.343 2137.47,248.799 2081.04,264.163Z" style="fill:white;"/>
        </g>
    </g>
</svg>
