<?xml version="1.0" encoding="UTF-8" standalone="no"?>
<!DOCTYPE svg PUBLIC "-//W3C//DTD SVG 1.1//EN" "http://www.w3.org/Graphics/SVG/1.1/DTD/svg11.dtd">
<svg width="100%" height="100%" viewBox="0 0 901 366" version="1.1" xmlns="http://www.w3.org/2000/svg" xmlns:xlink="http://www.w3.org/1999/xlink" xml:space="preserve" xmlns:serif="http://www.serif.com/" style="fill-rule:evenodd;clip-rule:evenodd;stroke-linejoin:round;stroke-miterlimit:2;">
    <g transform="matrix(1,0,0,1,-2089.6,-203.105)">
        <g transform="matrix(1.03805,0,0,1.04578,-301.14,-94.3352)">
            <path d="M2561.28,604.295C2724.34,577.009 2663.98,632.729 2782.11,633.886C2831.74,634.372 2879.04,609.912 2927.18,600.486C2980.22,590.101 3037.39,591.771 3089.41,577.262C3113.65,570.501 3136.04,556.322 3153.3,538.115C3233.63,453.397 3004.56,429.378 2975.77,406.188C2936.98,374.938 2939.47,335.756 2880.95,306.915C2848.14,290.746 2812.27,283.398 2775.78,284.532C2696.44,286.998 2679.38,342.078 2619.82,381.483C2566.8,416.569 2507.8,446.165 2449.88,472.281C2413.06,488.882 2335.01,500.177 2313.85,539.799C2255.04,649.906 2451.6,622.648 2561.28,604.295Z" style="fill:white;"/>
        </g>
    </g>
</svg>
