<?xml version="1.0" encoding="UTF-8" standalone="no"?>
<!DOCTYPE svg PUBLIC "-//W3C//DTD SVG 1.1//EN" "http://www.w3.org/Graphics/SVG/1.1/DTD/svg11.dtd">
<svg width="100%" height="100%" viewBox="0 0 1134 409" version="1.1" xmlns="http://www.w3.org/2000/svg" xmlns:xlink="http://www.w3.org/1999/xlink" xml:space="preserve" xmlns:serif="http://www.serif.com/" style="fill-rule:evenodd;clip-rule:evenodd;stroke-linejoin:round;stroke-miterlimit:2;">
    <g transform="matrix(1,0,0,1,-2989.79,-30.2561)">
        <g transform="matrix(1,0,0,1,466.594,-408.524)">
            <path d="M2836.25,819.491C2975.12,759.767 3025.12,777.366 3146.85,819.585C3177.24,830.123 3207.68,845.194 3240.31,847.103C3305.46,850.915 3343.84,799.811 3397.51,774.052C3472.7,737.965 3570.61,749.698 3629.18,680.499C3700.46,596.278 3622.18,525.454 3531.39,523.379C3477.9,522.157 3380.3,550.207 3340.91,540.703C3307.85,532.726 3278.01,503.807 3247.85,488.417C3180.26,453.923 3089.64,436.689 3013.41,438.983C2947.66,440.962 2897.65,493.426 2833.04,500.802C2759.75,509.168 2689.95,473.984 2619.85,512.185C2511.11,571.442 2481.8,658.351 2596.27,742.659C2615.8,757.041 2640.54,759.699 2659.94,773.118C2690.49,794.246 2707.25,825.071 2746.45,834.663C2776.05,841.906 2809.31,831.076 2836.25,819.491Z" style="fill:white;fill-rule:nonzero;"/>
        </g>
    </g>
</svg>
