<?xml version="1.0" encoding="UTF-8" standalone="no"?>
<!DOCTYPE svg PUBLIC "-//W3C//DTD SVG 1.1//EN" "http://www.w3.org/Graphics/SVG/1.1/DTD/svg11.dtd">
<svg width="100%" height="100%" viewBox="0 0 1290 647" version="1.1" xmlns="http://www.w3.org/2000/svg" xmlns:xlink="http://www.w3.org/1999/xlink" xml:space="preserve" xmlns:serif="http://www.serif.com/" style="fill-rule:evenodd;clip-rule:evenodd;stroke-linejoin:round;stroke-miterlimit:2;">
    <g transform="matrix(1,0,0,1,176.196,-115.682)">
        <g transform="matrix(1,0,0,1,-444,-14.8686)">
            <path d="M805.202,205.203C718.708,253.74 677.214,271.02 639.296,264.554C521.515,244.47 518.327,352.565 446.493,397.477C405.951,422.825 347.923,407.942 312.799,441.02C265.188,485.858 251.709,583.228 290.155,637.129C301.685,653.294 323.061,664.194 329.946,683.127C337.263,703.249 323.844,744.736 329.067,754.794C345.836,787.089 414.8,776.156 441.7,769.214C537.006,744.616 605.957,681.342 673.049,694.896C736.737,707.762 783.116,686.884 846.765,699.37C916.052,712.961 970.825,662.934 1037.19,655.464C1087.42,649.81 1137.65,657.335 1187.93,656.861C1226.47,656.497 1264.78,648.514 1303.34,650.557C1397.61,655.55 1505.5,715.961 1549.09,595.522C1593.74,472.175 1444.15,395.473 1345.67,373.937C1304.71,364.979 1252.16,375.87 1214.53,355.868C1134.71,313.443 1187.8,211.748 1137.7,165.387C1060.22,93.707 911.527,145.538 805.202,205.203Z" style="fill:white;"/>
        </g>
    </g>
</svg>
